<svg width="572" height="399" viewBox="0 0 572 399" fill="none" xmlns="http://www.w3.org/2000/svg">
<path d="M17.4583 285.639C0.223618 264.865 -2.75764 241.902 3.75878 218.499C10.2775 195.088 26.2958 171.262 47.009 148.817C88.4352 103.928 148.551 64.6568 188.597 45.3873C228.62 26.1284 300.113 6.38515 370.256 1.90696C440.448 -2.57433 509 8.24205 543.49 49.817C560.751 70.6231 569.23 98.6911 570.953 129.739C572.675 160.779 567.643 194.751 557.936 227.327C548.231 259.901 533.856 291.065 516.907 316.488C499.95 341.922 480.445 361.567 460.509 371.16C391.34 404.443 297.9 403.95 213.04 384.663C128.165 365.373 52.0368 327.32 17.4583 285.639Z" stroke="#3E3C3C"/>
</svg>
